<svg width="1257" height="1257" viewBox="0 0 1257 1257" fill="none" xmlns="http://www.w3.org/2000/svg">
<path d="M394.139 734.837L468.599 522.641H513.454L588.81 734.837H543.656L529.302 689.727H452.152L438.097 734.837H394.139ZM481.457 595.648L462.319 656.785H518.836L499.698 595.648L491.026 563.003H490.428C486.84 577.248 483.849 588.13 481.457 595.648Z" fill="#A5A5A5"/>
<path d="M607.043 734.837V522.641H650.402V734.837H607.043Z" fill="#A5A5A5"/>
<path d="M683.596 734.837V522.641H767.026C795.335 522.641 818.061 532.781 835.206 553.06C852.35 573.34 860.923 599.308 860.923 630.965C860.923 667.568 849.559 695.366 826.833 714.36C810.286 728.012 789.155 734.837 763.438 734.837H683.596ZM726.956 697.74H760.448C780.184 697.74 794.537 692.052 803.508 680.675C812.479 669.299 816.965 652.729 816.965 630.965C816.965 609.201 812.23 591.84 802.761 578.88C793.291 565.921 779.586 559.441 761.644 559.441H726.956V697.74Z" fill="#A5A5A5"/>
</svg>
