<svg width="287" height="66" viewBox="0 0 287 66" fill="none" xmlns="http://www.w3.org/2000/svg">
<path d="M0 65.1278L22.6488 0.852539L36.2927 0.852539L59.2144 65.1278L45.4796 65.1278L41.1135 51.4636L17.6461 51.4636L13.371 65.1278H0ZM26.5601 22.9668L20.7387 41.4853L37.93 41.4853L32.1086 22.9668L29.4708 13.0783H29.2888C28.1973 17.3933 27.2877 20.6895 26.5601 22.9668Z" fill="black"/>
<path d="M64.333 65.1278L64.333 0.852539L77.5221 0.852539V65.1278H64.333Z" fill="black"/>
<path d="M87.6191 65.1278L87.6191 0.852539L112.997 0.852539C121.608 0.852539 128.52 3.92397 133.735 10.0668C138.95 16.2097 141.558 24.0755 141.558 33.6644C141.558 44.7515 138.101 53.1717 131.189 58.925C126.155 63.0602 119.728 65.1278 111.905 65.1278H87.6191ZM100.808 53.8908H110.996C116.999 53.8908 121.365 52.1678 124.094 48.7218C126.823 45.2759 128.187 40.2567 128.187 33.6644C128.187 27.072 126.747 21.8132 123.866 17.8877C120.986 13.9623 116.817 11.9996 111.359 11.9996L100.808 11.9996V53.8908Z" fill="black"/>
<path d="M216.174 65.1504V19.6632H202.646V11.6767C211.606 11.3218 216.64 7.71305 217.745 0.850586L228.132 0.850586V65.1504H216.174Z" fill="black"/>
<path d="M261.048 66C253.279 66 247.096 63.0205 242.5 57.0616C237.904 51.1026 235.606 43.0821 235.606 33C235.606 22.9179 237.919 14.8974 242.545 8.93844C247.171 2.97948 253.368 0 261.137 0C268.906 0 275.148 2.96443 279.685 8.8933C284.222 14.8222 286.49 22.8577 286.49 33C286.49 43.1423 284.222 51.1026 279.685 57.0616C275.148 63.0205 268.936 66 261.048 66ZM261.137 55.301C269.618 55.301 273.858 47.8673 273.858 32.985C273.858 25.9726 272.82 20.5103 270.744 16.5677C268.669 12.6402 265.466 10.6689 261.137 10.6689C256.808 10.6689 253.501 12.6402 251.396 16.5677C249.291 20.4952 248.238 25.9726 248.238 32.985C248.238 39.9973 249.291 45.4596 251.396 49.4022C253.501 53.3297 256.748 55.301 261.137 55.301Z" fill="black"/>
<path d="M139.824 0.891602L169.971 0.891602V3.49967C168.059 3.49967 166.707 3.82861 165.914 4.4865C165.168 5.14439 164.795 6.01375 164.795 7.09457C164.795 8.22238 165.611 9.96109 167.243 12.3107C167.756 13.0626 168.526 14.2374 169.551 15.8351L174.819 23.1659C174.819 23.1659 176.708 20.4873 180.065 15.8351C183.422 11.1829 185.101 8.24588 185.101 7.02408C185.101 6.03724 184.705 5.21488 183.912 4.55699C183.119 3.85211 181.837 3.49967 180.065 3.49967V0.891602L200.306 0.891602V3.49967C198.021 3.64064 196.04 4.27503 194.361 5.40285C192.076 7.00058 188.952 10.478 184.988 15.8351L176.245 27.6066L192.914 50.7268C196.831 56.4128 199.628 59.8433 201.307 61.0181C202.986 62.1459 205.154 62.7803 207.812 62.9212V65.4588L177.595 65.4588V62.9212C179.694 62.9212 181.326 62.4513 182.492 61.5115C183.378 60.8536 183.821 59.9842 183.821 58.9034C183.821 57.8226 182.328 55.0971 179.344 50.7268L169.25 36.9111L158.968 50.7268C155.797 55.0031 154.212 57.5407 154.212 58.3395C154.212 59.4673 154.725 60.5011 155.75 61.441C156.823 62.3338 158.408 62.8273 160.507 62.9212V65.4588H141.035V62.9212C142.714 62.6863 144.182 62.0989 145.441 61.159C147.213 59.7963 150.198 56.3189 154.395 50.7268L167.824 32.7523L154.933 14.9892C151.482 9.9141 148.801 6.74213 146.889 5.47334C145.024 4.15756 142.669 3.49967 139.824 3.49967V0.891602Z" fill="black"/>
</svg>
