<svg width="1257" height="1257" viewBox="0 0 1257 1257" fill="none" xmlns="http://www.w3.org/2000/svg">
<path d="M576.082 244.944H680.689V140.295H767.863L628.386 0.764648L488.908 140.295H576.082V244.944Z" fill="#A5A5A5"/>
<path d="M680.689 1012.36H576.082V1117.01H488.908L628.386 1256.54L767.863 1117.01H680.689V1012.36Z" fill="#A5A5A5"/>
<path d="M320.183 394.342L394.147 320.335L320.183 246.342L381.818 184.669H184.569V381.993L246.218 320.335L320.183 394.342Z" fill="#A5A5A5"/>
<path d="M936.589 862.968L862.624 936.975L936.589 1010.97L874.954 1072.64H1072.2V875.316L1010.55 936.975L936.589 862.968Z" fill="#A5A5A5"/>
<path d="M244.824 576.329H140.216V489.122L0.73877 628.653L140.216 768.184V680.977H244.824V576.329Z" fill="#A5A5A5"/>
<path d="M1116.56 576.329H1011.95V680.977H1116.56V768.184L1256.03 628.653L1116.56 489.122V576.329Z" fill="#A5A5A5"/>
<path d="M320.183 862.968L246.218 936.975L184.569 875.316V1072.64H381.818L320.183 1010.97L394.147 936.975L320.183 862.968Z" fill="#A5A5A5"/>
<path d="M936.589 394.342L1010.55 320.335L1072.2 381.993V184.669H874.954L936.589 246.342L862.624 320.335L936.589 394.342Z" fill="#A5A5A5"/>
</svg>
