<svg fill="none" height="261" viewBox="0 0 1781 261" width="1781" xmlns="http://www.w3.org/2000/svg"><g fill="#000"><path d="m1682.96 83.0059c-1.12 1.5491-2.8 3.3134-5.04 5.2929-2.15 1.8934-4.3 3.6577-6.45 5.2929-2.15 1.5492-3.79 2.625-4.91 3.2274-1.03-2.4098-2.97-3.9589-5.81-4.6474-2.84-.7746-7.49-1.1619-13.94-1.1619h-37.57l-1.93-4.002 13.04-7.6166h60.02zm-8.39 98.1131c-8.44 6.541-16.66 11.575-24.66 15.104-8.01 3.528-13.9 5.293-17.69 5.293-4.22 0-7.96-2.41-11.23-7.23-3.27-4.905-4.9-11.145-4.9-18.718 0-3.271.08-6.584.25-9.941.26-3.442.78-7.53 1.55-12.264l12.52-78.4902c1.12-6.9711 2.29-11.8337 3.49-14.5878 1.29-2.754 3.1-4.9486 5.42-6.5839l13.04-9.2949 3.62 3.2274c-.61.6025-1.55 2.8832-2.84 6.8421-1.3 3.8729-2.54 9.6822-3.75 17.4279l-12.13 78.3614c-.52 3.27-.91 6.799-1.17 10.586-.25 3.7-.38 6.411-.38 8.133 0 5.25.94 9.165 2.84 11.747 1.98 2.582 4.17 3.873 6.58 3.873 3.01 0 6.67-.645 10.97-1.936 4.39-1.291 9.82-3.4 16.27-6.326z"/><path d="m1600.52 87.2596c-3.44 3.8729-6.75 7.0573-9.94 9.5531-3.1 2.4959-5.25 3.7433-6.45 3.7433-1.46 0-3.1-1.1614-4.91-3.4851-1.72-2.4098-3.87-4.8196-6.45-7.2294-2.5-2.4098-5.64-3.6146-9.43-3.6146-4.73 0-9.2 1.6782-13.42 5.0347-4.13 3.3565-6.2 7.8318-6.2 13.4264 0 3.012 1.46 6.196 4.39 9.553 2.93 3.27 7.83 6.54 14.72 9.811 4.73 2.152 9.34 4.819 13.81 8.004 4.56 3.098 8.31 6.842 11.23 11.231 3.01 4.303 4.52 9.51 4.52 15.621 0 5.938-1.51 11.489-4.52 16.653-2.92 5.164-6.84 9.682-11.75 13.555-4.9 3.873-10.28 6.885-16.13 9.037-5.77 2.238-11.45 3.356-17.04 3.356-5.34 0-10.55-.989-15.62-2.969-5.08-1.979-9.26-4.346-12.53-7.1-3.27-2.84-4.9-5.465-4.9-7.875 0-1.291.82-3.227 2.45-5.809 1.72-2.582 3.62-4.949 5.68-7.101 2.15-2.151 3.83-3.227 5.04-3.227.86 0 1.85 1.119 2.97 3.357 1.2 2.151 2.84 4.647 4.9 7.487 2.07 2.84 4.86 5.379 8.39 7.617 3.62 2.151 8.26 3.227 13.94 3.227 6.12 0 11.32-2.108 15.63-6.326 4.38-4.303 6.58-9.424 6.58-15.362 0-6.627-2.54-12.092-7.62-16.395-4.99-4.389-10.76-8.09-17.3-11.102-9.12-4.304-15.44-8.65-18.97-13.039-3.53-4.475-5.3-9.467-5.3-14.975 0-7.229 2.24-13.5982 6.72-19.1063 4.47-5.508 10.07-9.7682 16.78-12.7804 6.8-3.0983 13.6-4.6475 20.4-4.6475 5.85 0 10.54.8607 14.07 2.5819 3.61 1.6352 6.62 3.4426 9.03 5.422 2.5 1.8935 4.91 3.1844 7.23 3.8729z"/><path d="m1510.35 187.438c-7.4 4.906-13.43 8.477-18.08 10.715-4.64 2.238-8.21 3.356-10.71 3.356-2.07 0-4-1.075-5.81-3.227s-3.27-6.197-4.39-12.135c-1.12-6.025-1.68-14.76-1.68-26.206 0-2.496.43-6.627 1.29-12.394.86-5.852 1.85-12.221 2.97-19.106 1.21-6.885 2.33-13.254 3.36-19.106 1.12-5.852 1.89-10.0264 2.32-12.5223.86-3.9589 3.7-7.8318 8.52-11.6186s10.12-7.0572 15.88-9.8113l2.58 4.5184c-2.92 2.4098-4.99 4.6044-6.19 6.5838-1.12 1.8935-2.28 5.7663-3.49 11.6187-1.72 8.1763-3.31 16.6103-4.77 25.3023-1.38 8.607-2.5 16.266-3.36 22.979-.78 6.627-1.16 11.232-1.16 13.814 0 9.811.56 16.653 1.68 20.526 1.11 3.787 2.66 5.68 4.64 5.68 1.72 0 3.75-.258 6.07-.774 2.41-.517 5.34-1.464 8.78-2.841zm-11.62-100.4366c-2.41 1.6352-4.13 3.7438-5.16 6.3257-1.04 2.5819-1.9 4.8626-2.59 6.8419-.68 1.98-1.8 2.969-3.35 2.969-1.47 0-3.57-1.161-6.33-3.4852-2.75-2.4098-6.07-4.7765-9.94-7.1003-3.79-2.4097-8.05-3.6146-12.78-3.6146-5.94 0-11.36 2.0655-16.27 6.1966-4.81 4.045-9.03 9.1655-12.65 15.3625-3.53 6.196-6.28 12.608-8.26 19.235-1.89 6.627-2.84 12.479-2.84 17.557 0 11.102 1.77 19.967 5.29 26.594 3.53 6.627 7.88 9.94 13.04 9.94 2.15 0 4.78-1.42 7.88-4.26 3.18-2.926 6.54-6.67 10.07-11.231 3.53-4.648 6.93-9.682 10.2-15.104 3.27-5.509 6.11-10.844 8.52-16.008l-3.36 22.979c-2.15 3.873-4.86 8.176-8.13 12.909-3.19 4.734-6.72 9.252-10.59 13.555-3.79 4.304-7.7 7.832-11.75 10.586-3.96 2.84-7.74 4.26-11.36 4.26-3.78 0-7.83-1.506-12.13-4.518-4.22-2.926-7.83-7.66-10.85-14.201-3.01-6.54-4.51-15.19-4.51-25.948 0-13.598 3.18-26.464 9.55-38.599s15.62-22.377 27.75-30.7252c4.65-3.1843 10.07-5.9814 16.27-8.3912 6.28-2.4959 12.05-3.7438 17.3-3.7438 3.87 0 7.44.9037 10.71 2.711 3.36 1.8074 6.42 3.7008 9.17 5.6802 2.75 1.8934 5.12 2.9692 7.1 3.2274z"/><path d="m1395.39 36.7899c-.78 4.3892-2.07 9.51-3.88 15.3624-1.8 5.8523-3.44 10.4137-4.9 13.6841h-5.55c.86-7.9178.69-13.2968-.52-16.1369-1.2-2.9262-3.31-4.3893-6.33-4.3893h-49.18l5.03-11.7477h62.1zm-21.18 68.1621c-1.72 2.41-3.83 4.949-6.32 7.617-2.41 2.668-4.52 4.734-6.33 6.197-2.75-2.926-6.15-4.82-10.2-5.681-3.95-.946-10.8-1.42-20.52-1.42h-16.14l4-10.327h52.93zm10.85 59.772c-1.72 7.401-3.49 13.899-5.29 19.493-1.73 5.508-3.06 9.51-4.01 12.006h-101.21l.78-5.551c5.42-1.205 9.77-2.539 13.04-4.002 3.35-1.463 5.07-2.754 5.16-3.873l18.85-135.6794c.17-1.0328-1.08-2.3238-3.75-3.8729-2.66-1.5492-6.8-2.9262-12.39-4.1311l.78-5.5511h52.92l-.77 5.5511c-5.42.6025-9.77 1.334-13.04 2.1946-3.18.8607-4.86 1.8934-5.03 3.0983l-17.95 131.9355c-.34 2.582.82 4.605 3.49 6.068s9.16 2.195 19.49 2.195h15.62c4.82 0 8.69-.431 11.62-1.291 3.01-.947 5.72-2.97 8.13-6.068 2.5-3.184 5.34-8.133 8.52-14.846z"/><path d="m1213.88 87.5178c-2.41 1.6352-4.26 3.6577-5.56 6.0675-1.2 2.4098-2.23 4.5184-3.09 6.3257-.86 1.807-2.03 2.711-3.49 2.711-1.55 0-3.61-1.119-6.2-3.3565-2.49-2.3237-5.55-4.6044-9.16-6.842-3.53-2.3238-7.66-3.4856-12.4-3.4856-5.93 0-11.36 2.0655-16.26 6.1966-4.91 4.045-9.17 9.1655-12.78 15.3625-3.53 6.196-6.28 12.608-8.26 19.235s-2.97 12.479-2.97 17.557c0 11.102 1.89 19.967 5.68 26.594 3.78 6.627 8.26 9.94 13.42 9.94 2.5 0 6.11-2.625 10.85-7.875 4.73-5.249 9.68-12.135 14.84-20.655 5.25-8.52 9.73-17.6 13.43-27.239l-2.58 24.528c-2.67 5.422-5.86 11.016-9.56 16.783-3.61 5.68-7.48 10.973-11.61 15.878-4.14 4.82-8.31 8.736-12.53 11.748-4.21 3.012-8.26 4.518-12.13 4.518-3.79 0-7.83-1.506-12.14-4.518-4.3-2.926-8-7.66-11.1-14.201-3.01-6.54-4.52-15.19-4.52-25.948 0-13.598 3.1-26.421 9.3-38.47 6.28-12.135 15.79-22.4199 28.53-30.8542 4.82-3.1843 10.24-5.9814 16.26-8.3912 6.11-2.4959 11.79-3.7438 17.04-3.7438 3.88 0 7.45.9467 10.72 2.8401 3.36 1.8934 6.41 3.8729 9.17 5.9384 2.75 1.9795 5.12 3.0983 7.1 3.3565zm8.77-7.6166c-2.92 2.4098-5.2 5.379-6.84 8.9076-1.63 3.5286-2.88 8.3912-3.74 14.5882-1.81 13.512-3.01 25.604-3.62 36.275-.51 10.672-.99 20.527-1.42 29.563-.43 9.037-1.46 17.988-3.1 26.852-2.15 11.877-6.23 22.721-12.26 32.532-6.02 9.812-13.21 17.601-21.56 23.367-8.26 5.852-16.91 8.778-25.95 8.778-4.82 0-10.02-.903-15.62-2.711-5.51-1.721-10.24-3.83-14.2-6.325-3.87-2.41-5.81-4.605-5.81-6.584 0-1.98.91-4.217 2.71-6.713 1.9-2.41 3.88-4.562 5.94-6.455 2.07-1.807 3.49-2.711 4.26-2.711 1.04 0 2.15.861 3.36 2.582 1.29 1.721 3.05 3.701 5.29 5.938 2.24 2.324 5.25 4.346 9.04 6.068 3.87 1.721 8.82 2.582 14.84 2.582 8.35 0 14.94-3.787 19.76-11.361 4.9-7.487 8.65-18.374 11.23-32.661 1.55-8.52 2.58-16.309 3.1-23.366.51-7.058.86-13.986 1.03-20.785.26-6.799.64-14.114 1.16-21.946s1.59-16.782 3.23-26.852c1.46-9.209 4.77-16.4811 9.94-21.8171 5.16-5.422 10.58-9.51 16.26-12.2641z"/><path d="m1106.79 186.922c-7.84 4.647-14.5 8.219-20.01 10.714-5.43 2.582-9.77 3.873-13.04 3.873-3.01 0-5.38-1.377-7.1-4.131-1.64-2.668-2.45-6.325-2.45-10.973 0-1.807.38-5.336 1.16-10.586.77-5.25 1.72-11.36 2.84-18.331 1.2-6.971 2.36-13.943 3.48-20.914 1.21-7.057 2.2-13.34 2.97-18.848.78-5.594 1.16-9.553 1.16-11.877 0-6.5404-.68-11.1018-2.06-13.6837-1.38-2.582-3.96-3.8729-7.75-3.8729-1.46 0-4.34 1.2479-8.65 3.7438-4.21 2.4098-8.9 6.0675-14.07 10.9728-5.16 4.906-9.9 11.016-14.2 18.332-2.41 4.131-4.39 9.08-5.94 14.846-1.46 5.766-2.92 12.823-4.39 21.172-1.37 7.659-2.23 14.243-2.58 19.751-.34 5.508-.47 10.801-.39 15.879-2.23.947-5.33 2.324-9.29 4.131-3.96 1.894-7.015 3.357-9.166 4.389l-4.261-4.002c1.808-8.606 3.572-17.987 5.293-28.142 1.724-10.242 3.274-20.225 4.644-29.951 1.38-9.811 2.5-18.417 3.36-25.819.86-7.487 1.29-12.737 1.29-15.7495 0-3.959-.43-6.3688-1.29-7.2294-.77-.9467-1.94-1.42-3.49-1.42-1.29 0-3.481.4303-6.579 1.2909-3.098.8607-5.508 1.5492-7.23 2.0655l-1.807-5.0347c7.316-3.1843 14.376-5.9814 21.176-8.3912 6.79-2.4959 11.27-3.7438 13.42-3.7438 2.41 0 3.83.9037 4.26 2.711.52 1.8074.78 5.7663.78 11.8768 0 1.8074-.18 4.8626-.52 9.1658-.26 4.2176-.52 7.4016-.77 9.5536 9.38-11.7912 18.71-20.2685 28.01-25.4323 9.29-5.2499 17.77-7.8749 25.43-7.8749 5.42 0 9.55 1.6783 12.39 5.0347 2.84 3.2705 4.26 9.0798 4.26 17.428 0 4.4755-.6 10.4995-1.8 18.0735-1.12 7.487-2.46 15.405-4 23.753-1.55 8.349-2.93 16.051-4.14 23.109-1.11 7.057-1.67 12.393-1.67 16.008 0 2.926.38 4.948 1.16 6.067.77 1.033 1.93 1.549 3.48 1.549 3.96 0 9.34-1.42 16.14-4.26z"/><path d="m980.98 33.3064c0 4.7335-1.42 9.2949-4.26 13.6842-2.84 4.3032-6.713 6.4548-11.618 6.4548-5.595 0-8.392-3.0123-8.392-9.0367 0-4.5614 1.464-9.0798 4.39-13.5551s6.756-6.713 11.489-6.713c5.594 0 8.391 3.0553 8.391 9.1658zm-3.485 153.6236c-8.09 4.734-14.674 8.349-19.752 10.844-5.078 2.496-9.51 3.744-13.297 3.744-2.926 0-5.25-1.377-6.971-4.131-1.721-2.668-2.582-6.326-2.582-10.973 0-3.098.431-7.66 1.291-13.684.861-6.111 1.937-12.867 3.228-20.268 1.291-7.488 2.582-14.889 3.872-22.205 1.291-7.401 2.367-13.985 3.228-19.751.86-5.767 1.291-9.898 1.291-12.3935 0-3.959-.474-6.3687-1.42-7.2294-.947-.9467-2.238-1.42-3.873-1.42-1.033 0-2.883.3442-5.551 1.0327s-5.121 1.3771-7.359 2.0656l-1.807-4.7766c7.229-3.2704 14.157-6.1535 20.784-8.6494 6.627-2.4958 11.06-3.7438 13.297-3.7438 2.41 0 4.088.8176 5.035 2.4529 1.033 1.6352 1.549 4.4322 1.549 8.3912 0 3.0122-.473 7.6166-1.42 13.8133-.861 6.197-1.979 13.168-3.356 20.913-1.291 7.66-2.625 15.363-4.002 23.109-1.291 7.745-2.41 14.716-3.357 20.913-.861 6.197-1.291 10.801-1.291 13.813 0 5.078 1.291 7.617 3.873 7.617 2.668 0 5.207-.344 7.617-1.033 2.496-.688 5.508-1.764 9.036-3.227z"/><path d="m867.954 190.149-12.91 17.17-4.26-3.744c-1.291-7.488-3.012-16.223-5.164-26.207-2.152-10.069-4.475-20.268-6.971-30.595-2.496-10.328-4.992-19.666-7.488-28.014s-4.69-14.588-6.584-18.719c-1.979-4.3892-3.657-7.2293-5.034-8.5202-1.377-1.377-2.797-2.0656-4.26-2.0656-1.119 0-3.013.3443-5.681 1.0328-2.582.6885-4.905 1.377-6.971 2.0655l-1.549-4.7765c6.627-3.2704 12.867-6.1536 18.719-8.6494 5.852-2.4959 9.811-3.7438 11.877-3.7438 2.409 0 4.346 1.2479 5.809 3.7438 1.463 2.4958 3.227 6.713 5.293 12.6514 2.582 7.2293 5.422 16.352 8.52 27.368 3.185 10.93 6.24 22.635 9.166 35.114 3.012 12.394 5.508 24.356 7.488 35.889zm49.185-104.9549c0 3.8729-1.42 9.467-4.26 16.7829-2.84 7.229-7.574 17.47-14.201 30.724s-15.62 30.897-26.981 52.93c-7.659 14.975-15.362 28.099-23.108 39.374-7.659 11.274-15.706 20.053-24.141 26.335-8.348 6.283-17.428 9.424-27.239 9.424-5.164 0-9.553-.774-13.168-2.323-3.7-1.464-5.551-2.884-5.551-4.261s.689-3.442 2.066-6.196c1.377-2.668 3.012-5.293 4.905-7.875 1.894-2.582 3.615-4.26 5.164-5.035 4.131 2.754 7.445 4.346 9.941 4.777 2.495.516 5.336.774 8.52.774 8.348 0 16.524-4.776 24.528-14.329 8.004-9.467 16.438-22.678 25.303-39.633 4.389-8.434 8.951-17.471 13.684-27.11 4.82-9.639 9.252-18.934 13.297-27.884 4.131-9.037 7.444-16.912 9.94-23.625 2.582-6.713 3.873-11.3604 3.873-13.9423 0-4.5614-2.281-6.8421-6.842-6.8421-1.463 0-3.184.2152-5.164.6455-1.893.4303-4.088 1.2049-6.584 2.3237l-2.323-4.7765c6.196-3.5286 11.618-6.0675 16.266-7.6167 4.733-1.6352 8.563-2.4528 11.489-2.4528s5.422.5594 7.488 1.6783c2.065 1.1188 3.098 3.8298 3.098 8.133z"/><path d="m798.563 186.931c-8.434 5.25-15.104 8.993-20.01 11.231-4.819 2.238-9.424 3.356-13.813 3.356-2.41 0-4.561-1.334-6.455-4.002-1.893-2.581-2.84-6.368-2.84-11.36 0-2.84.517-8.219 1.549-16.137 1.119-8.004 2.496-17.471 4.132-28.401 1.721-11.016 3.528-22.549 5.422-34.598 1.893-12.1346 3.657-23.8823 5.292-35.2428 1.722-11.3604 3.099-21.3868 4.132-30.0793 1.118-8.7785 1.678-15.1902 1.678-19.2352 0-3.959-.689-6.3688-2.066-7.2294-1.377-.9467-2.883-1.4201-4.518-1.4201-1.033 0-2.969.3873-5.809 1.1619-2.841.7746-5.379 1.5492-7.617 2.3237l-1.936-5.0347c7.315-3.27043 14.372-6.11054 21.171-8.52032 6.799-2.49585 11.318-3.74378 13.555-3.74378 2.41 0 4.303.774575 5.68 2.32372 1.464 1.54915 2.195 4.30319 2.195 8.26218 0 4.4753-.559 11.1452-1.678 20.0098-1.033 8.7785-2.41 18.848-4.131 30.2084-1.721 11.2744-3.529 22.979-5.422 35.114-1.894 12.0489-3.701 23.6679-5.422 34.8559-1.722 11.102-3.142 20.914-4.26 29.434-1.033 8.434-1.55 14.631-1.55 18.59 0 2.926.388 4.948 1.162 6.067.861 1.033 1.98 1.549 3.357 1.549 3.787 0 9.338-1.42 16.653-4.26z"/><path d="m751.634 36.7899c-.775 4.3892-2.066 9.51-3.873 15.3624-1.721 5.8523-3.313 10.4137-4.776 13.6841h-5.293c.688-7.9178.387-13.2968-.904-16.1369-1.205-2.9262-3.314-4.3893-6.326-4.3893h-50.218l5.035-11.7477h63.257zm-28.53 68.1621c-1.894 2.41-4.045 4.949-6.455 7.617-2.324 2.668-4.389 4.734-6.197 6.197-2.926-2.926-6.325-4.82-10.198-5.681-3.787-.946-8.52-1.42-14.201-1.42h-16.137l4.002-10.327h46.217zm-17.945-71.3895-.774 5.5511c-5.422.6025-9.768 1.334-13.039 2.1946-3.184.8607-4.862 1.8934-5.034 3.0983l-18.978 138.3905c-.086 1.033 1.291 2.195 4.132 3.486 2.926 1.291 8.133 2.754 15.62 4.389l-.774 5.551h-56.544l.774-5.551c5.422-1.205 9.768-2.539 13.039-4.002 3.356-1.463 5.078-2.754 5.164-3.873l18.848-135.6794c.172-1.0328-1.076-2.3238-3.744-3.8729-2.668-1.5492-6.799-2.9262-12.393-4.1311l.774-5.5511z"/><path d="m580.319 87.2596c-3.443 3.8729-6.756 7.0573-9.941 9.5531-3.098 2.4959-5.25 3.7433-6.455 3.7433-1.463 0-3.098-1.1614-4.905-3.4851-1.721-2.4098-3.873-4.8196-6.455-7.2294-2.496-2.4098-5.637-3.6146-9.424-3.6146-4.734 0-9.209 1.6782-13.426 5.0347-4.131 3.3565-6.197 7.8318-6.197 13.4264 0 3.012 1.464 6.196 4.39 9.553 2.926 3.27 7.832 6.54 14.717 9.811 4.733 2.152 9.338 4.819 13.813 8.004 4.561 3.098 8.305 6.842 11.231 11.231 3.012 4.303 4.519 9.51 4.519 15.621 0 5.938-1.507 11.489-4.519 16.653-2.926 5.164-6.842 9.682-11.748 13.555-4.905 3.873-10.284 6.885-16.136 9.037-5.767 2.238-11.447 3.356-17.041 3.356-5.336 0-10.543-.989-15.621-2.969-5.077-1.979-9.252-4.346-12.522-7.1-3.27-2.84-4.906-5.465-4.906-7.875 0-1.291.818-3.227 2.453-5.809 1.721-2.582 3.615-4.949 5.68-7.101 2.152-2.151 3.83-3.227 5.035-3.227.861 0 1.85 1.119 2.969 3.357 1.205 2.151 2.84 4.647 4.906 7.487 2.065 2.84 4.863 5.379 8.391 7.617 3.615 2.151 8.262 3.227 13.943 3.227 6.11 0 11.317-2.108 15.62-6.326 4.389-4.303 6.584-9.424 6.584-15.362 0-6.627-2.539-12.092-7.617-16.395-4.991-4.389-10.758-8.09-17.298-11.102-9.123-4.304-15.449-8.65-18.978-13.039-3.528-4.475-5.292-9.467-5.292-14.975 0-7.229 2.237-13.5982 6.712-19.1063 4.476-5.508 10.07-9.7682 16.783-12.7804 6.799-3.0983 13.598-4.6475 20.397-4.6475 5.852 0 10.543.8607 14.072 2.5819 3.614 1.6352 6.626 3.4426 9.036 5.422 2.496 1.8935 4.906 3.1844 7.23 3.8729z"/><path d="m486.915 187.447c-7.315 4.906-13.34 8.477-18.073 10.715-4.648 2.238-8.435 3.356-11.361 3.356-3.27 0-5.981-3.098-8.133-9.294-2.151-6.283-3.227-17.816-3.227-34.598 0-2.668.43-7.229 1.291-13.684.946-6.541 2.108-14.201 3.485-22.979 1.463-8.779 3.013-18.031 4.648-27.7559 1.635-9.8112 3.141-19.3213 4.518-28.5301 1.463-9.2949 2.625-17.6431 3.486-25.0446.946-7.4015 1.42-13.1247 1.42-17.1697 0-3.959-.603-6.3688-1.808-7.2294-1.118-.9467-2.452-1.4201-4.002-1.4201-1.118 0-3.141.3873-6.067 1.1619-2.84.7746-5.422 1.5492-7.746 2.3237l-1.549-5.0347c7.229-3.27043 14.244-6.11054 21.043-8.52032 6.885-2.49585 11.403-3.74378 13.555-3.74378 2.409 0 4.174.774575 5.293 2.32372 1.205 1.54915 1.807 4.30319 1.807 8.26218 0 4.4753-.516 10.6288-1.549 18.4606-1.033 7.8319-2.367 16.6104-4.002 26.3356-1.549 9.7252-3.228 19.7516-5.035 30.0793-1.721 10.2416-3.399 20.1386-5.035 29.6916-1.549 9.553-2.84 18.074-3.872 25.561-1.033 7.402-1.55 13.039-1.55 16.912 0 9.897.474 17.127 1.42 21.688.947 4.561 2.41 6.842 4.39 6.842 2.237 0 4.518-.215 6.842-.645 2.41-.517 5.121-1.42 8.133-2.711zm-14.33-95.9181-8.778 19.6221c-1.549 0-3.4-1.118-5.551-3.356-2.066-2.238-4.476-4.82-7.23-7.746-2.668-2.926-5.68-5.5079-9.036-7.7455-3.357-2.2377-7.101-3.3565-11.232-3.3565-5.852 0-11.145 2.0655-15.878 6.1966-4.734 4.045-8.822 9.1654-12.264 15.3624-3.357 6.197-5.939 12.608-7.746 19.235-1.808 6.627-2.711 12.479-2.711 17.557 0 11.102 2.108 19.967 6.325 26.594 4.218 6.627 8.822 9.94 13.814 9.94 3.356 0 7.143-2.108 11.36-6.325 4.303-4.304 8.736-10.027 13.297-17.17 4.561-7.229 9.037-15.19 13.426-23.883l-4.002 22.979c-3.873 7.316-8.219 14.201-13.039 20.656-4.733 6.368-9.682 11.532-14.846 15.491-5.077 3.959-10.155 5.938-15.233 5.938-3.873 0-8.047-1.592-12.522-4.776-4.476-3.184-8.305-8.176-11.49-14.975-3.184-6.799-4.776-15.535-4.776-26.207 0-13.598 2.926-26.292 8.778-38.083 5.939-11.877 15.018-21.8601 27.239-29.9501 4.734-3.0983 10.199-5.8954 16.396-8.3912 6.196-2.4959 11.919-3.7438 17.169-3.7438 3.271 0 6.455 1.334 9.553 4.002 3.099 2.668 6.197 5.379 9.295 8.133 3.185 2.668 6.412 4.002 9.682 4.002z"/><path d="m379.569 86.485c-1.377 1.8074-2.926 4.0881-4.647 6.8421-1.721 2.7541-3.4 5.2069-5.035 7.3589-1.549 2.151-2.883 3.227-4.002 3.227-2.151 0-3.959-.732-5.422-2.195-1.377-1.549-2.711-3.0549-4.002-4.518-1.205-1.4631-2.668-2.1946-4.389-2.1946-3.012 0-6.584 2.6249-10.715 7.8746-4.131 5.164-8.133 11.705-12.006 19.623s-6.971 16.008-9.295 24.27c-1.807 6.455-3.313 14.071-4.518 22.85-1.119 8.692-1.549 16.481-1.291 23.366-1.98.861-5.078 2.238-9.295 4.131-4.131 1.98-7.186 3.443-9.166 4.389l-4.26-4.002c1.894-9.208 3.701-18.762 5.422-28.659 1.807-9.983 3.4-19.622 4.777-28.917s2.452-17.6 3.227-24.916c.775-7.401 1.162-13.038 1.162-16.9113 0-3.959-.516-6.3688-1.549-7.2294-1.033-.9467-2.281-1.4201-3.744-1.4201-1.377 0-3.572.4304-6.584 1.291-3.012.7746-5.25 1.377-6.713 1.8073l-1.807-4.7765c7.315-3.2704 14.372-6.1536 21.172-8.6494 6.799-2.4959 11.274-3.7438 13.425-3.7438 2.41 0 3.83.9467 4.261 2.8401.516 1.8934.774 5.8954.774 12.0059 0 1.2049-.215 3.4856-.645 6.8421-.431 3.3561-.904 6.8851-1.42 10.5861-.517 3.7-.947 6.627-1.291 8.778 5.594-11.36 10.715-19.9665 15.362-25.8189 4.734-5.9384 9.166-9.9404 13.297-12.0059 4.131-2.1516 8.047-3.2274 11.748-3.2274 2.065 0 3.916.7316 5.551 2.1946 1.635 1.3771 3.356 2.9692 5.164 4.7766 1.807 1.7213 3.959 3.0983 6.454 4.131z"/><path d="m280.227 33.3064c0 4.7335-1.421 9.2949-4.261 13.6842-2.84 4.3032-6.713 6.4548-11.618 6.4548-5.594 0-8.391-3.0123-8.391-9.0367 0-4.5614 1.463-9.0798 4.389-13.5551s6.756-6.713 11.489-6.713c5.594 0 8.392 3.0553 8.392 9.1658zm-3.486 153.6236c-8.09 4.734-14.674 8.349-19.752 10.844-5.077 2.496-9.51 3.744-13.297 3.744-2.926 0-5.249-1.377-6.971-4.131-1.721-2.668-2.582-6.326-2.582-10.973 0-3.098.431-7.66 1.291-13.684.861-6.111 1.937-12.867 3.228-20.268 1.291-7.488 2.582-14.889 3.873-22.205 1.291-7.401 2.366-13.985 3.227-19.751.861-5.767 1.291-9.898 1.291-12.3935 0-3.959-.473-6.3687-1.42-7.2294-.947-.9467-2.238-1.42-3.873-1.42-1.033 0-2.883.3442-5.551 1.0327s-5.121 1.3771-7.359 2.0656l-1.807-4.7766c7.229-3.2704 14.158-6.1535 20.784-8.6494 6.627-2.4958 11.06-3.7438 13.297-3.7438 2.41 0 4.088.8176 5.035 2.4529 1.033 1.6352 1.549 4.4322 1.549 8.3912 0 3.0122-.473 7.6166-1.42 13.8133-.86 6.197-1.979 13.168-3.356 20.913-1.291 7.66-2.625 15.363-4.002 23.109-1.291 7.745-2.41 14.716-3.357 20.913-.86 6.197-1.291 10.801-1.291 13.813 0 5.078 1.291 7.617 3.873 7.617 2.668 0 5.207-.344 7.617-1.033 2.496-.688 5.508-1.764 9.036-3.227z"/><path d="m210.32 143.3c0 11.188-2.841 21.085-8.521 29.692-5.594 8.52-13.038 15.19-22.333 20.009-9.209 4.82-19.279 7.23-30.209 7.23-3.528 0-8.477-.258-14.846-.775-6.368-.43-12.909-.99-19.622-1.678-6.627-.602-12.135-1.119-16.5245-1.549l28.0135-12.652c3.012 2.238 7.101 3.787 12.264 4.648 5.164.774 9.855 1.162 14.072 1.162 7.573 0 14.157-2.023 19.751-6.068 5.595-4.045 9.941-9.209 13.039-15.491 3.184-6.369 4.777-13.039 4.777-20.01 0-5.766-1.119-11.317-3.357-16.653-2.238-5.422-5.809-9.898-10.715-13.426-4.905-3.529-11.403-5.293-19.493-5.293-5.164 0-9.941.258-14.33.774-4.389.517-8.348 1.205-11.877 2.066l.517-12.652h11.747c8.09 0 15.664-.903 22.721-2.7106 7.144-1.8073 12.91-5.1638 17.299-10.0695 4.475-4.9056 6.713-11.9198 6.713-21.0426 0-7.0572-1.549-12.6514-4.647-16.7824-3.099-4.1311-6.885-7.0573-11.361-8.7785-4.389-1.8074-8.563-2.711-12.522-2.711-9.209 0-16.955.2581-23.237.7745-6.197.4303-11.619 1.0328-16.266 1.8074-4.562.7745-9.037 1.6782-13.426 2.711v-8.004c7.918-2.2376 16.309-4.131 25.173-5.6802 8.865-1.6352 19.279-2.4528 31.241-2.4528 13.857 0 24.83 2.8832 32.92 8.6494 8.176 5.6802 12.264 13.5551 12.264 23.6246 0 8.9506-2.711 17.2127-8.133 24.7863-5.422 7.4876-12.221 12.8666-20.397 16.1374 8.692 1.979 15.75 6.67 21.172 14.071 5.422 7.315 8.133 16.094 8.133 26.336zm-62.354-109.7318-20.397 149.2348c-.086 1.033 1.162 2.324 3.744 3.873 2.668 1.463 6.713 2.797 12.135 4.002l-.775 5.551h-52.9289l.7746-5.551c5.422-1.205 9.7683-2.539 13.0383-4.002 3.357-1.463 5.078-2.754 5.164-3.873l20.397-149.2348z"/><path d="m0 113 24.4496-85h38.5504l-24.4496 85z"/><path d="m1718 113 24.45-85h38.55l-24.45 85z"/></g></svg>