<svg viewBox="0 0 36 36" fill="none" xmlns="http://www.w3.org/2000/svg">
<path d="M21.272 -0.00195312L26.322 5.04807C21.5027 9.86736 11.275 20.0967 10.7759 20.5942C9.49787 21.8722 9.49787 23.9439 10.7759 25.222C12.054 26.5 14.1257 26.5 15.4037 25.222C15.9012 24.7229 26.1289 14.4952 30.9498 9.6759L35.9999 14.7259V-0.00195312H21.272Z" fill="black"/>
<path d="M31.0922 19.6368C30.1872 19.6368 29.4558 20.3683 29.4558 21.2732V32.7282H3.27286V6.54532H14.7279C15.6312 6.54532 16.3643 5.81384 16.3643 4.90889C16.3643 4.00395 15.6312 3.27246 14.7279 3.27246H3.27286C1.46624 3.27246 0 4.73707 0 6.54532V32.7282C0 34.5365 1.46624 36.0011 3.27286 36.0011H29.4558C31.2624 36.0011 32.7286 34.5365 32.7286 32.7282V21.2732C32.7286 20.3683 31.9971 19.6368 31.0922 19.6368Z" fill="black"/>
</svg>
