<svg viewBox="0 0 46 55" fill="none" xmlns="http://www.w3.org/2000/svg">
<path d="M44.9709 14.8791C44.9447 14.7576 44.9032 14.6399 44.8473 14.5289L44.8182 14.4413C44.7567 14.3297 44.6809 14.2267 44.5927 14.1348L31.8873 1.40101C31.7957 1.31254 31.693 1.23648 31.5818 1.17479L31.4945 1.13101C31.3839 1.0749 31.2666 1.03321 31.1455 1.00695C31.0511 0.997682 30.9561 0.997682 30.8618 1.00695H2.45455C2.06878 1.00695 1.69881 1.16072 1.42603 1.43442C1.15325 1.70812 1 2.07934 1 2.46641V52.5405C1 52.9276 1.15325 53.2988 1.42603 53.5725C1.69881 53.8462 2.06878 54 2.45455 54H43.5455C43.9312 54 44.3012 53.8462 44.574 53.5725C44.8468 53.2988 45 52.9276 45 52.5405V15.1637C44.9996 15.0681 44.9899 14.9728 44.9709 14.8791ZM40.0327 13.7043H32.3164V5.96183L40.0327 13.7043ZM3.90909 51.0811V3.89669H29.4073V15.1637C29.4073 15.5508 29.5605 15.922 29.8333 16.1957C30.1061 16.4694 30.4761 16.6232 30.8618 16.6232H42.0909V51.0811H3.90909Z" fill="black" stroke="black" stroke-width="1.5"/>
<rect x="13" y="25" width="19" height="4" fill="black"/>
<rect x="13" y="33" width="19" height="4" fill="black"/>
</svg>
